<svg version="1.0" xmlns="http://www.w3.org/2000/svg" width="85.000000pt" height="85.000000pt" viewBox="0 0 85.000000 85.000000" preserveAspectRatio="xMidYMid meet">

<g transform="translate(0.000000,85.000000) scale(0.100000,-0.100000)" fill="#d0d0d0" stroke="none">
<path d="M198 750 c-113 -34 -182 -162 -151 -280 9 -32 12 -35 48 -35 34 0 43 5 70 41 38 53 66 68 100 52 19 -8 30 -30 52 -97 25 -78 31 -86 55 -89 20 -2 31 3 44 25 41 66 65 83 116 83 36 0 48 -4 48 -15 0 -11 -11 -15 -39 -15 -32 0 -44 -6 -63 -31 -46 -62 -77 -89 -100 -89 -45 0 -66 27 -93 115 -30 97 -49 109 -84 50 -21 -37 -74 -75 -103 -75 -25 0 -23 -11 10 -56 68 -93 264 -244 317 -244 34 0 157 82 237 158 105 101 143 175 143 282 0 64 -4 82 -28 122 -47 81 -152 124 -233 98 -20 -7 -56 -30 -79 -51 l-42 -39 -29 32 c-54 57 -128 79 -196 58z m482 -314 c0 -8 -4 -17 -9 -21 -12 -7 -24 12 -16 25 9 15 25 12 25 -4z" fill="#d0d0d0"/>
</g>
</svg>